<?xml version="1.0" standalone="no"?>
<!DOCTYPE svg PUBLIC "-//W3C//DTD SVG 20010904//EN"
 "http://www.w3.org/TR/2001/REC-SVG-20010904/DTD/svg10.dtd">
<svg version="1.0" xmlns="http://www.w3.org/2000/svg"
 width="955.000000pt" height="960.000000pt" viewBox="0 0 955.000000 960.000000"
 preserveAspectRatio="xMidYMid meet">
<metadata>
Created by potrace 1.16, written by Peter Selinger 2001-2019
</metadata>
<g transform="translate(0.000000,960.000000) scale(0.100000,-0.100000)"
fill="#000000" stroke="none">
<path d="M1 6038 c1 -2708 4 -3554 13 -3526 6 20 17 43 24 50 6 6 12 25 12 41
0 22 4 28 18 25 9 -2 22 5 29 17 12 19 12 18 13 -9 0 -28 1 -29 14 -11 8 11
12 23 10 27 -2 4 9 6 26 6 17 -1 33 -5 36 -10 8 -13 24 -9 24 6 0 8 6 16 12
19 10 3 10 9 0 26 -7 11 -8 21 -4 21 5 0 15 -11 22 -25 17 -32 23 -32 55 7 15
18 24 27 20 21 -7 -15 22 -17 43 -4 10 6 8 10 -10 15 -19 5 -20 8 -8 15 9 7
19 6 29 -2 11 -9 15 -9 18 1 12 35 81 -17 75 -57 -2 -13 1 -21 6 -17 5 3 18
-1 28 -9 15 -11 16 -15 4 -15 -8 -1 -5 -5 8 -11 13 -5 28 -6 34 -3 5 3 9 0 7
-7 -5 -38 2 -49 29 -49 17 0 38 -12 56 -30 26 -26 30 -28 41 -14 10 14 14 11
36 -20 13 -20 29 -36 35 -36 5 0 20 -9 32 -20 12 -11 26 -20 32 -20 5 0 10 -7
10 -15 0 -8 7 -15 16 -15 9 0 18 -9 21 -20 3 -11 9 -18 13 -15 5 3 15 2 24 -1
13 -5 14 -9 4 -21 -10 -12 -9 -15 7 -13 33 4 41 0 25 -10 -12 -8 -11 -10 8
-10 27 0 75 -48 68 -67 -3 -8 2 -13 14 -13 11 0 20 -7 20 -15 0 -8 4 -15 9
-15 4 0 21 -12 36 -26 21 -19 25 -28 15 -34 -9 -5 2 -14 34 -28 32 -15 44 -25
40 -36 -3 -9 3 -19 16 -26 14 -8 19 -17 15 -30 -3 -10 -1 -21 5 -25 5 -3 10
-1 10 5 0 6 5 8 10 5 6 -3 10 -14 10 -23 0 -13 10 -18 39 -20 32 -2 41 1 46
18 7 23 21 26 28 8 4 -8 6 -7 6 3 1 9 8 22 16 29 9 7 14 19 11 26 -3 8 0 17 7
21 7 5 12 19 13 33 0 14 5 24 12 22 7 -1 12 2 12 8 0 5 -6 10 -13 10 -20 0
-14 44 6 48 9 2 18 11 18 20 2 23 2 24 -6 44 -5 13 -2 18 10 18 15 0 16 2 4
17 -12 15 -12 16 5 10 12 -5 23 -3 28 5 6 10 10 10 18 -2 5 -8 10 -11 10 -7 0
5 7 1 16 -8 9 -8 13 -22 10 -30 -3 -8 3 -19 12 -24 11 -7 12 -11 4 -11 -17 0
-5 -42 16 -54 8 -5 10 -11 5 -15 -15 -9 -25 -61 -12 -61 6 0 17 -7 25 -15 14
-13 14 -15 0 -15 -9 0 -16 -4 -16 -10 0 -5 10 -9 23 -7 19 2 22 -3 23 -38 0
-22 -3 -47 -8 -57 -5 -10 -3 -18 5 -21 20 -8 23 -163 3 -182 -8 -8 -17 -15
-21 -15 -15 0 -36 -32 -31 -46 5 -13 1 -15 -20 -10 -17 5 -23 3 -19 -4 3 -5 1
-10 -5 -10 -7 0 -9 -8 -5 -20 7 -21 -10 -28 -18 -7 -3 6 -10 -1 -16 -18 -10
-23 -14 -26 -21 -15 -13 21 -18 11 -24 -50 -6 -62 -27 -119 -60 -164 -26 -35
-41 -70 -26 -61 6 3 10 0 10 -8 0 -10 -8 -13 -25 -9 -15 2 -25 0 -25 -7 0 -6
10 -11 23 -11 19 -1 20 -2 6 -13 -9 -7 -20 -27 -24 -45 -4 -18 -14 -36 -22
-39 -8 -3 -34 -26 -59 -52 -35 -36 -43 -51 -39 -71 4 -20 3 -22 -5 -10 -9 12
-11 10 -9 -10 3 -48 0 -52 -26 -46 -18 5 -32 1 -47 -14 -21 -19 -68 -19 -76 2
-2 4 -8 8 -14 8 -6 0 -8 -7 -4 -15 4 -12 -3 -15 -29 -15 -28 0 -33 3 -28 17 4
11 3 14 -5 9 -7 -4 -12 -14 -12 -22 0 -17 -20 -19 -20 -1 -1 6 -10 1 -20 -12
-11 -13 -20 -18 -20 -12 0 6 -13 11 -30 11 -25 0 -30 -4 -30 -25 0 -29 -31
-50 -48 -33 -9 9 -12 7 -13 -8 -2 -26 -4 -36 -12 -54 -6 -14 -38 -210 -39
-240 -1 -8 -5 -20 -10 -27 -6 -7 -7 -30 -3 -52 8 -49 -9 -144 -32 -176 -13
-18 -32 -26 -68 -32 -27 -4 -57 -6 -65 -4 -26 4 -70 26 -70 33 0 5 -9 8 -20 8
-11 0 -20 7 -20 15 0 8 -7 15 -16 15 -9 0 -23 8 -30 18 -10 14 -15 15 -25 5
-7 -7 -24 -13 -39 -13 -19 0 -22 2 -10 10 29 18 0 22 -42 6 -39 -16 -98 -66
-78 -66 6 0 10 -4 10 -10 0 -5 -9 -10 -20 -10 -20 0 -25 -13 -21 -60 2 -23 2
-24 -17 -7 -25 22 -35 22 -27 -3 5 -17 2 -19 -32 -17 -26 1 -38 7 -38 17 0 8
-9 15 -20 15 -19 0 -20 -8 -23 -137 l-4 -138 1036 0 1036 0 -26 40 c-30 46
-42 120 -25 162 17 44 66 68 137 68 55 0 62 3 82 29 29 40 79 54 172 49 58 -3
86 -10 115 -28 37 -23 37 -23 26 -2 -8 15 -10 86 -8 227 4 190 6 207 25 228
11 12 22 31 25 42 5 19 5 19 12 -2 9 -27 20 -30 29 -7 7 18 -19 84 -33 84 -6
0 -11 -10 -12 -22 0 -16 -8 -6 -25 32 -19 40 -27 76 -29 135 -4 80 -4 80 4 15
4 -36 13 -76 21 -90 l13 -25 13 30 c14 31 10 118 -8 165 -9 23 -10 24 -22 8
-11 -15 -14 -7 -20 59 -3 42 -4 79 -1 81 3 3 5 -6 5 -21 0 -45 17 -39 49 18
17 30 35 55 39 55 16 0 9 -35 -11 -50 -10 -9 -25 -38 -31 -64 -12 -47 -11 -53
20 -125 31 -71 35 -76 61 -73 25 3 26 2 12 -10 -40 -33 -75 -108 -50 -108 12
0 36 -61 33 -82 -2 -9 4 -33 13 -53 23 -56 18 -64 -15 -25 l-30 35 6 -35 c4
-19 12 -47 19 -62 11 -23 10 -29 -6 -44 -42 -38 -61 -171 -32 -217 4 -7 8 -14
9 -17 4 -29 48 -151 55 -156 5 -3 9 -16 9 -30 0 -13 5 -24 10 -24 6 0 10 -4
10 -10 0 -5 -6 -7 -13 -4 -8 3 -13 -5 -15 -21 -2 -27 7 -32 26 -13 14 14 16 0
3 -21 -5 -7 -14 -10 -21 -6 -9 5 -9 3 0 -11 13 -22 81 -73 119 -91 29 -13 251
-18 251 -5 0 4 -11 24 -25 44 -44 66 -70 168 -45 183 5 3 10 14 10 24 0 9 8
26 18 37 17 19 43 78 45 102 0 6 7 12 16 12 9 0 27 6 41 13 14 7 47 12 73 11
42 -2 51 -6 73 -35 13 -18 24 -41 24 -51 0 -10 5 -18 11 -18 6 0 20 -11 31
-25 14 -18 26 -24 39 -20 15 5 19 1 20 -17 1 -13 1 -27 0 -31 -4 -27 73 -126
141 -182 72 -58 32 -54 532 -55 361 0 456 2 456 12 0 9 3 9 9 -1 7 -11 10 -7
14 15 l4 29 2 -27 1 -28 184 0 c167 0 185 2 189 18 4 16 5 16 6 -1 1 -16 111
-17 2311 -17 l2310 1 0 4799 0 4800 -4775 0 -4775 0 1 -3562z m3944 2073 c-4
-14 1 -20 22 -26 21 -6 24 -9 11 -12 -19 -5 -20 -10 -20 -81 0 -26 -4 -42 -11
-41 -35 4 -55 -3 -60 -21 -4 -17 -1 -19 21 -14 l27 7 -27 -30 c-18 -18 -28
-40 -28 -59 0 -18 -7 -34 -20 -42 -12 -7 -20 -8 -20 -2 0 5 4 10 9 10 5 0 11
11 13 25 6 28 0 32 -16 11 -8 -10 -18 -12 -33 -5 -32 12 -29 29 7 42 18 7 28
17 25 25 -2 7 2 15 11 19 8 3 13 12 10 20 -3 8 1 25 10 38 9 13 13 28 10 34
-4 5 2 12 13 16 10 3 27 15 37 26 16 17 16 22 4 29 -9 6 -16 6 -18 0 -2 -6 -8
-10 -14 -10 -5 0 0 14 12 30 24 34 34 39 25 11z m811 -355 c13 -4 24 -13 24
-20 0 -17 27 -29 36 -15 4 6 11 6 20 -2 11 -9 14 -8 14 2 0 11 2 11 10 -1 5
-9 5 -19 -2 -28 -8 -9 -8 -16 0 -24 7 -7 12 -8 12 -3 0 4 9 0 19 -9 11 -10 18
-23 15 -30 -3 -7 13 -28 36 -48 22 -20 40 -39 40 -43 0 -12 -36 -41 -105 -87
-39 -25 -79 -55 -89 -67 -11 -12 -25 -21 -31 -21 -40 0 -51 -208 -20 -399 16
-100 16 -116 3 -125 -22 -16 -51 -64 -45 -74 3 -4 2 -14 -3 -22 -7 -11 -13
-11 -34 3 -50 33 -106 10 -106 -44 0 -21 7 -32 30 -44 36 -19 50 -19 50 0 0 8
10 20 23 26 12 7 25 16 28 22 4 5 13 7 21 4 22 -8 11 -75 -13 -82 -48 -16 -94
-88 -83 -131 5 -21 2 -25 -24 -30 -17 -3 -39 -19 -51 -35 -25 -34 -45 -29 -37
9 14 67 -37 66 -71 0 -21 -40 -26 -118 -10 -135 3 -3 20 2 38 11 18 9 40 16
51 16 10 0 27 9 38 20 23 23 99 28 146 10 19 -8 30 -8 38 0 12 12 83 13 90 1
9 -13 -4 -41 -19 -41 -6 0 -20 -9 -31 -21 -10 -11 -26 -18 -36 -16 -11 3 -18
0 -18 -9 0 -8 -9 -14 -19 -14 -11 0 -23 -4 -26 -10 -3 -5 -16 -10 -29 -10 -35
0 -46 -20 -46 -81 0 -49 3 -57 21 -62 12 -3 18 -10 14 -16 -7 -13 6 -15 21 -3
5 4 -1 -4 -14 -16 -19 -19 -26 -21 -38 -12 -12 10 -16 7 -25 -19 -8 -23 -22
-36 -50 -48 -22 -8 -39 -20 -39 -25 0 -9 -16 -8 -72 4 -26 6 -73 54 -94 96
-11 20 -34 61 -53 91 -34 54 -41 75 -65 181 -11 53 -13 55 -42 52 -19 -2 -35
3 -45 15 -14 16 -59 144 -59 167 0 5 -18 48 -40 97 -28 62 -40 102 -39 132 l1
42 15 -55 c20 -77 30 -81 38 -16 5 39 12 56 22 56 30 0 59 -129 33 -145 -29
-18 6 -115 40 -112 28 2 25 23 -5 43 -25 16 -33 48 -16 59 5 3 8 29 6 58 -29
373 -35 476 -36 617 -1 163 6 223 37 282 24 46 39 55 83 51 33 -3 62 5 143 42
56 25 122 48 147 51 25 3 48 7 52 10 4 2 42 -1 84 -7 68 -10 78 -10 93 5 14
14 18 14 20 2 2 -8 14 -17 28 -20z m884 -1308 c-4 -24 -6 -59 -4 -78 3 -19 6
-123 8 -230 2 -107 7 -212 11 -232 4 -21 5 -38 2 -38 -12 0 -26 115 -31 259
-4 85 -9 157 -14 160 -4 3 -8 20 -9 36 -1 17 -4 58 -6 92 -5 52 -3 63 11 66
38 10 40 8 32 -35z m-1145 -591 c32 -29 139 -97 152 -97 25 0 152 -72 158 -90
3 -10 18 -23 33 -29 19 -8 39 -33 62 -76 32 -61 33 -65 17 -83 -20 -22 -23
-92 -4 -125 18 -32 47 -71 47 -63 0 4 7 1 15 -7 12 -13 12 -20 -5 -55 -11 -23
-17 -48 -14 -56 3 -9 1 -16 -5 -16 -6 0 -11 -5 -11 -11 0 -7 -8 -19 -17 -28
-23 -21 -43 -57 -43 -76 0 -8 -4 -15 -10 -15 -14 0 -13 -33 2 -65 10 -22 9
-27 -8 -40 -29 -22 -36 -19 -88 30 -26 25 -51 43 -56 40 -6 -4 -10 1 -10 9 0
9 -4 16 -9 16 -5 0 -21 23 -36 51 -14 28 -52 77 -84 108 -84 82 -111 145 -118
270 -3 56 -9 101 -14 101 -16 0 -59 -63 -59 -86 0 -13 -4 -24 -8 -24 -4 0 -13
-13 -19 -30 -8 -22 -18 -30 -36 -30 -14 0 -32 -3 -41 -6 -9 -3 -16 -2 -16 4 0
5 17 14 37 19 32 7 39 14 46 46 6 24 27 56 59 89 l49 50 -16 140 c-8 77 -15
152 -15 166 0 28 -3 29 65 -31z m964 -866 c10 -6 27 -8 38 -5 37 10 36 -25 -2
-87 -19 -31 -35 -61 -35 -66 0 -22 -57 -113 -99 -158 -26 -27 -61 -67 -78 -87
-17 -20 -34 -34 -38 -30 -3 3 -3 -1 0 -10 4 -10 -1 -21 -13 -29 -10 -8 -22
-24 -26 -37 -6 -19 -10 -21 -22 -11 -9 7 -14 25 -12 41 2 17 -3 33 -12 38 -13
9 -13 10 0 11 8 0 0 5 -17 10 -18 5 -40 22 -50 37 -9 15 -24 33 -32 40 -14 12
-14 14 2 26 18 14 24 46 8 46 -5 0 -17 26 -27 58 -10 31 -26 71 -35 88 -17 31
-17 32 7 43 14 6 34 11 45 11 10 0 27 4 37 9 48 24 149 70 160 73 27 7 183 -2
201 -11z m-1677 -32 c-29 -16 -55 -36 -58 -44 -3 -7 -12 -11 -19 -9 -7 3 -24
0 -37 -7 -13 -7 -27 -12 -31 -11 -13 4 -208 -93 -246 -122 -19 -14 -41 -26
-47 -26 -7 0 -25 -11 -40 -25 -29 -27 -44 -32 -44 -14 0 20 -25 2 -26 -19 -2
-27 -23 -54 -39 -48 -7 2 -18 -1 -24 -7 -8 -8 -11 -8 -11 2 0 7 9 15 20 18 10
3 22 14 25 24 6 19 109 109 125 109 5 0 43 16 85 35 41 19 83 36 93 38 9 1 24
7 32 12 47 30 261 123 285 124 6 1 -14 -13 -43 -30z m289 -153 c5 3 7 -20 3
-56 -5 -56 -4 -61 13 -56 10 3 32 8 48 11 24 5 27 4 15 -5 -12 -9 -2 -10 40
-6 l55 5 -50 -13 c-27 -7 -65 -21 -84 -30 l-33 -18 6 -86 c17 -234 17 -232 38
-232 10 0 16 -4 13 -10 -4 -6 6 -10 22 -10 26 -1 25 -2 -10 -15 -21 -7 -41
-16 -44 -19 -3 -3 -1 -63 6 -133 6 -71 11 -147 11 -170 0 -24 4 -43 8 -43 10
0 9 -30 0 -46 -4 -5 -8 -35 -10 -66 -1 -31 -6 -54 -10 -52 -4 2 -9 -8 -11 -23
-2 -16 -5 7 -6 50 -1 77 -1 77 -28 77 -27 1 -27 1 -9 15 15 11 16 15 5 16 -8
0 -3 5 10 12 23 11 23 11 16 142 -10 192 -11 197 -28 210 -9 7 -14 15 -10 19
4 4 9 14 12 24 6 22 3 177 -5 261 l-6 63 -46 -7 c-26 -4 -55 -11 -64 -16 -12
-6 -17 -5 -20 6 -2 12 -10 10 -40 -11 -33 -24 -58 -26 -58 -4 0 9 61 35 110
45 19 4 51 14 70 23 35 15 36 16 38 79 2 63 11 100 20 75 2 -7 8 -10 13 -6z
m-971 -224 c0 -4 -4 -12 -9 -17 -17 -18 -1 -63 25 -69 22 -6 23 -8 9 -22 -8
-8 -15 -25 -16 -37 0 -12 -2 -43 -2 -69 -2 -47 -16 -79 -18 -40 -1 12 -3 27
-4 32 -1 6 -3 17 -4 25 -1 9 -7 12 -18 8 -14 -5 -12 1 7 23 14 16 21 26 16 22
-5 -4 -14 -3 -21 2 -8 7 -15 -1 -25 -25 -8 -19 -17 -35 -21 -35 -11 0 -19 -27
-39 -123 -30 -142 -36 -241 -16 -268 18 -26 21 -59 7 -59 -6 0 -13 5 -16 10
-3 6 -10 10 -14 10 -28 0 -51 -250 -32 -342 10 -47 9 -68 -3 -120 -24 -99 -48
-347 -29 -300 8 21 27 13 50 -22 20 -31 21 -46 3 -46 -4 0 -19 12 -34 27 -35
35 -46 23 -53 -56 -7 -80 -22 -66 -26 25 -7 122 -31 126 -42 6 -10 -110 -24
-125 -25 -26 0 64 -3 83 -15 88 -15 5 -13 43 4 71 3 6 7 26 8 45 8 134 43 344
83 500 33 132 36 130 15 -12 -9 -55 -14 -102 -13 -103 2 -1 13 -6 25 -9 27 -8
31 5 31 97 0 37 3 107 7 155 4 48 5 85 2 82 -3 -3 -12 -25 -21 -50 l-17 -45 6
45 c17 137 153 525 185 525 10 0 14 9 13 23 -2 16 1 21 9 16 8 -5 9 -2 4 11
-8 21 1 55 15 55 5 0 9 -4 9 -8z m1660 -629 c0 -12 -4 -25 -10 -28 -13 -8 -13
-64 0 -118 6 -23 11 -85 13 -137 2 -91 3 -94 27 -101 24 -7 24 -7 3 -8 -33 -1
-28 -21 5 -22 26 0 25 -1 -9 -14 -36 -13 -89 -10 -89 6 0 5 7 6 15 3 17 -7 21
11 4 22 -8 4 -8 9 -1 13 16 10 24 182 11 243 -7 29 -12 67 -13 83 -1 28 -4 30
-51 35 l-50 6 48 8 c28 5 47 14 47 22 0 7 8 17 17 23 21 11 33 -2 33 -36z
m-947 -170 c4 -3 1 -13 -6 -21 -9 -12 -9 -16 1 -19 9 -4 12 -38 12 -128 0
-136 6 -185 24 -180 33 10 76 14 72 6 -3 -5 -24 -11 -47 -15 l-42 -7 7 -42 c4
-23 15 -104 24 -179 10 -76 21 -140 25 -144 4 -4 32 0 63 10 31 10 58 16 60
13 2 -2 -23 -12 -56 -22 -33 -10 -60 -22 -60 -28 0 -5 10 -6 23 -3 12 4 59 16
104 28 82 22 102 37 41 32 l-33 -3 38 11 c35 11 37 13 38 57 l1 46 13 -40 c11
-35 15 -40 41 -38 28 2 28 2 7 -9 -27 -13 -31 -32 -5 -24 52 16 75 18 68 8 -3
-5 -24 -13 -46 -17 -22 -4 -42 -11 -45 -15 -3 -5 -1 -49 4 -97 6 -48 13 -128
17 -177 l6 -88 31 6 32 6 -25 -20 -25 -20 25 0 c25 -1 25 -1 3 -12 -31 -15
-36 -48 -23 -157 13 -103 37 -241 44 -248 2 -2 39 3 82 13 44 9 94 19 112 22
27 3 32 8 32 31 0 33 9 44 25 31 8 -7 11 -47 8 -132 -2 -68 -3 -140 -3 -160 0
-21 -4 -38 -9 -38 -7 0 -11 73 -13 232 0 16 -5 28 -11 28 -6 0 -59 -10 -118
-22 l-107 -21 -4 -111 c-2 -61 -9 -120 -15 -131 -10 -16 -12 4 -13 108 0 114
-2 127 -17 127 -15 0 -16 2 -3 10 27 17 5 18 -82 2 -96 -17 -120 -36 -35 -28
l52 5 -53 -10 -54 -11 6 -51 c5 -51 5 -51 -7 -17 -7 19 -15 40 -19 46 -4 6
-10 35 -13 65 -3 30 -10 72 -15 94 -5 22 -9 56 -9 75 0 59 16 14 29 -80 6 -47
13 -87 16 -89 8 -8 173 21 187 32 15 12 10 93 -13 228 -6 30 -10 75 -10 98 l0
43 -37 -7 c-21 -4 -64 -11 -97 -15 -67 -10 -68 -11 -68 -44 0 -14 -4 -23 -9
-20 -5 3 -9 12 -9 20 0 8 -4 14 -10 14 -5 0 -10 7 -10 15 0 8 -8 15 -17 15
-15 0 -15 1 2 13 17 13 17 17 2 83 -15 67 -31 204 -28 253 1 23 -1 24 -46 18
-27 -4 -59 -9 -73 -12 l-25 -6 25 14 c14 8 42 17 63 21 20 4 37 11 37 16 0 4
-22 2 -50 -5 -27 -7 -50 -10 -50 -5 0 4 23 14 51 20 l51 13 -5 56 c-11 108
-34 266 -42 284 -5 12 -19 17 -49 18 l-41 2 38 10 c64 18 40 26 -30 10 -92
-21 -113 -30 -113 -48 0 -8 -7 -15 -15 -15 -8 0 -15 7 -15 15 0 8 -6 15 -12
15 -8 1 -6 6 5 14 9 7 17 22 18 32 0 16 2 15 10 -5 6 -16 14 -21 27 -16 9 3
37 10 62 15 25 5 57 13 73 19 l27 11 0 165 c0 151 4 178 23 158z m-1069 -858
l-6 -75 27 0 c14 0 36 -6 48 -12 12 -7 30 -13 40 -13 13 0 24 -16 38 -55 10
-30 19 -56 19 -58 0 -2 -13 10 -30 26 -16 17 -30 40 -30 51 0 12 -4 21 -10 21
-5 0 -9 -6 -7 -12 1 -9 -7 -12 -23 -9 -77 12 -84 9 -92 -40 -4 -25 -14 -104
-21 -175 -11 -105 -11 -130 -1 -137 15 -9 8 -36 -13 -53 -22 -18 -44 -148 -44
-257 0 -55 2 -101 3 -103 2 -2 21 -5 41 -7 36 -4 64 -17 37 -17 -10 0 -10 -3
0 -15 11 -13 6 -15 -34 -15 -58 0 -63 -10 -72 -155 -7 -106 -24 -156 -24 -71
0 26 -5 46 -11 46 -11 0 -9 26 16 230 8 63 22 178 31 255 9 77 22 172 29 210
8 39 18 113 24 165 6 52 14 122 18 155 4 33 7 66 6 74 -1 8 5 20 13 28 8 8 14
25 14 38 0 24 9 55 16 55 3 0 2 -34 -2 -75z m1501 -1065 c3 -5 1 -10 -5 -10
-6 0 -9 -4 -6 -9 3 -5 33 -3 68 5 35 7 77 13 93 12 17 0 -9 -8 -56 -18 -47 -9
-90 -20 -96 -23 -16 -10 -4 -147 24 -260 l26 -109 31 6 c17 3 54 7 81 10 47 5
46 5 -15 -9 -35 -9 -69 -20 -75 -27 -7 -8 -5 -9 9 -4 11 4 47 9 80 11 34 2 50
2 36 -1 -14 -3 -48 -12 -76 -19 l-52 -15 4 -42 c2 -24 5 -79 8 -123 2 -44 7
-88 11 -97 5 -13 3 -18 -8 -18 -19 0 -37 96 -37 194 0 77 -7 84 -72 70 -37 -8
-42 -13 -53 -49 -11 -40 -11 -40 -18 -12 -4 15 -5 32 -2 37 3 5 1 11 -4 15 -6
3 -8 12 -4 20 3 10 -1 15 -13 16 -14 1 -12 3 6 8 30 8 30 23 6 205 -8 66 -14
122 -11 124 7 8 45 -217 45 -271 0 -48 10 -57 53 -50 21 3 40 9 43 14 2 4 -7
57 -20 117 -14 60 -29 141 -32 180 -4 40 -10 72 -13 72 -3 0 -31 -7 -61 -15
-30 -8 -71 -14 -90 -14 l-35 1 35 7 c47 9 66 21 50 31 -6 4 13 16 47 28 67 23
89 26 98 12z m-2207 -414 c33 -18 52 -40 76 -89 21 -46 16 -90 -17 -130 -40
-50 -152 -44 -200 11 -22 24 -26 126 -7 162 31 57 91 76 148 46z m1845 -33
c-3 -10 -11 -24 -17 -31 -20 -27 -7 -264 15 -278 5 -3 9 -13 9 -23 0 -36 23
-42 66 -16 45 28 95 35 74 10 -10 -12 -10 -15 4 -15 9 0 16 7 16 15 0 9 6 12
16 8 13 -5 13 -8 2 -15 -10 -8 -10 -11 0 -15 6 -2 10 -9 6 -14 -3 -5 -14 -5
-25 2 -17 8 -32 5 -77 -18 -31 -15 -58 -31 -60 -34 -14 -30 -64 -100 -69 -96
-3 3 -1 12 3 19 18 28 30 75 24 94 -4 10 -3 22 2 25 5 3 -5 56 -23 119 -31
112 -32 139 -15 235 2 11 4 26 5 33 0 6 12 12 26 12 19 0 23 -4 18 -17z m681
-298 l7 -35 57 5 c45 3 49 3 22 -4 -19 -5 -46 -13 -60 -19 -21 -9 -15 -10 35
-7 33 2 49 2 35 -1 -49 -10 -95 -27 -102 -38 -4 -6 -8 -33 -9 -61 -1 -27 -3
-42 -6 -32 -2 9 -9 17 -15 17 -7 0 -9 15 -5 40 6 44 6 44 -43 31 -19 -6 -54
-15 -76 -20 -37 -10 -44 -16 -67 -69 -20 -46 -26 -79 -30 -174 l-6 -118 32 -2
32 -1 -33 -4 c-23 -3 -32 -9 -28 -18 7 -19 -23 -28 -39 -12 -13 14 -1 52 13
43 4 -2 9 52 10 120 2 102 6 132 22 164 27 54 26 60 -17 61 -34 2 -35 2 -8 6
40 6 57 23 25 24 -22 1 -21 2 5 8 28 6 30 9 27 46 -2 30 0 36 7 25 6 -8 11
-25 11 -37 0 -28 4 -28 102 -2 l78 21 0 39 c0 49 16 51 24 4z m-545 -221 c-11
-43 -27 -98 -35 -122 -18 -55 -19 -52 14 -52 26 -1 26 -1 8 -15 -11 -8 -16
-15 -10 -15 5 -1 -3 -7 -18 -15 -50 -27 -90 -183 -74 -289 l7 -46 116 0 c133
0 150 -7 25 -11 -100 -2 -139 -9 -122 -19 13 -8 5 -30 -10 -30 -17 0 -40 104
-40 182 0 60 6 92 25 140 l25 61 -21 18 -21 18 25 6 c22 6 29 18 47 78 48 165
63 208 71 200 5 -5 0 -44 -12 -89z m4875 75 c10 1 30 -3 45 -9 27 -11 28 -12
26 -98 -2 -117 -18 -160 -71 -186 -72 -37 -98 -39 -102 -8 -2 12 -7 22 -11 22
-4 0 -4 30 1 68 4 37 10 92 14 122 3 34 12 60 22 67 9 7 22 16 27 21 6 5 15 7
20 4 6 -4 18 -5 29 -3z m-7356 -458 c2 -6 11 -11 20 -11 10 0 23 -14 31 -32 8
-18 19 -37 25 -41 8 -6 7 -10 -1 -14 -7 -2 -13 -10 -13 -17 0 -12 -55 -49 -80
-53 -8 -1 -16 -6 -18 -12 -2 -7 -10 -6 -23 2 -16 10 -22 9 -30 -3 -9 -13 -10
-13 -6 1 4 11 -5 20 -29 29 -19 8 -34 20 -34 27 0 7 -3 13 -8 13 -14 0 -34 42
-24 49 6 3 12 13 14 21 3 16 39 38 78 49 35 10 93 6 98 -8z"/>
<path d="M4290 7343 c-76 -30 -93 -42 -86 -58 2 -7 -1 -18 -7 -24 -8 -8 -2
-12 21 -17 18 -4 39 -16 48 -28 13 -19 13 -22 -3 -29 -50 -23 -94 -127 -60
-140 8 -4 7 -6 -3 -6 -13 -1 -13 -3 -1 -10 17 -11 40 -1 91 41 19 15 38 28 42
28 4 0 15 -17 25 -37 9 -21 19 -41 20 -44 2 -4 -12 -10 -32 -13 -35 -7 -45
-19 -25 -31 6 -4 8 -10 5 -15 -7 -11 20 -20 58 -20 48 1 112 34 133 69 10 17
22 31 25 31 4 0 15 7 23 16 13 12 14 20 5 37 -9 16 -9 22 0 25 14 5 14 27 -1
68 -10 27 -9 37 3 51 41 51 42 63 13 94 -16 16 -35 29 -44 28 -8 -1 -17 0 -20
1 -3 1 -41 3 -85 6 -69 3 -89 0 -145 -23z"/>
<path d="M2815 3568 c-5 -29 -10 -60 -11 -68 -1 -8 -6 -63 -10 -122 -7 -106
-7 -108 14 -108 12 0 22 -5 22 -11 0 -5 4 -8 9 -4 5 3 12 36 16 73 3 37 11
106 17 154 13 105 7 138 -26 138 -21 0 -24 -6 -31 -52z"/>
<path d="M3963 3028 c-68 -20 -73 -23 -73 -49 0 -31 14 -149 31 -256 12 -72
12 -73 43 -73 l31 -1 -30 -14 c-29 -14 -29 -14 20 -9 70 9 150 30 139 37 -6 3
-30 1 -53 -4 -24 -5 -49 -8 -55 -6 -6 2 18 10 54 18 l65 14 -1 45 c-2 83 -13
237 -18 251 -3 8 -6 25 -8 39 -3 21 -9 25 -38 26 -19 1 -68 -7 -107 -18z"/>
<path d="M215 1352 c-11 -2 -22 -7 -25 -11 -3 -3 -25 -16 -50 -28 -41 -20 -94
-65 -127 -107 -9 -10 -13 -51 -13 -118 0 -96 1 -101 16 -80 8 12 28 37 45 54
16 18 29 36 29 39 0 4 35 33 78 65 42 32 91 72 108 89 17 16 40 37 52 45 11 8
23 25 27 37 6 21 3 22 -57 21 -35 -1 -72 -3 -83 -6z"/>
</g>
</svg>
